<svg width="109" height="16" viewBox="0 0 109 16" fill="none" xmlns="http://www.w3.org/2000/svg">
<path d="M0.4 15V0.599999H9.8V3.14H3.12V6.22H8.6V8.76H3.12V12.46H9.8V15H0.4ZM16.2569 15.3C15.1369 15.3 14.1769 15.05 13.3769 14.55C12.5769 14.05 11.9635 13.37 11.5369 12.51C11.1102 11.65 10.8969 10.68 10.8969 9.6C10.8969 8.50667 11.1169 7.53 11.5569 6.67C12.0035 5.81 12.6302 5.13333 13.4369 4.64C14.2435 4.14667 15.1969 3.9 16.2969 3.9C17.5702 3.9 18.6369 4.22333 19.4969 4.87C20.3635 5.51 20.9169 6.38667 21.1569 7.5L18.4369 8.22C18.2769 7.66 17.9969 7.22333 17.5969 6.91C17.2035 6.59667 16.7569 6.44 16.2569 6.44C15.6835 6.44 15.2135 6.58 14.8469 6.86C14.4802 7.13333 14.2102 7.51 14.0369 7.99C13.8635 8.46333 13.7769 9 13.7769 9.6C13.7769 10.54 13.9835 11.3033 14.3969 11.89C14.8169 12.47 15.4369 12.76 16.2569 12.76C16.8702 12.76 17.3369 12.62 17.6569 12.34C17.9769 12.06 18.2169 11.66 18.3769 11.14L21.1569 11.72C20.8502 12.8667 20.2702 13.75 19.4169 14.37C18.5635 14.99 17.5102 15.3 16.2569 15.3ZM27.0241 15.3C25.9374 15.3 24.9841 15.0567 24.1641 14.57C23.3441 14.0833 22.7041 13.4133 22.2441 12.56C21.7907 11.7 21.5641 10.7133 21.5641 9.6C21.5641 8.47333 21.7974 7.48333 22.2641 6.63C22.7307 5.77 23.3741 5.1 24.1941 4.62C25.0141 4.14 25.9574 3.9 27.0241 3.9C28.1107 3.9 29.0641 4.14333 29.8841 4.63C30.7107 5.11667 31.3541 5.79 31.8141 6.65C32.2741 7.50333 32.5041 8.48667 32.5041 9.6C32.5041 10.72 32.2707 11.71 31.8041 12.57C31.3441 13.4233 30.7007 14.0933 29.8741 14.58C29.0541 15.06 28.1041 15.3 27.0241 15.3ZM27.0241 12.76C27.8974 12.76 28.5474 12.4667 28.9741 11.88C29.4074 11.2867 29.6241 10.5267 29.6241 9.6C29.6241 8.64 29.4041 7.87333 28.9641 7.3C28.5307 6.72667 27.8841 6.44 27.0241 6.44C26.4307 6.44 25.9441 6.57333 25.5641 6.84C25.1841 7.10667 24.9007 7.47667 24.7141 7.95C24.5341 8.42333 24.4441 8.97333 24.4441 9.6C24.4441 10.5667 24.6607 11.3367 25.0941 11.91C25.5341 12.4767 26.1774 12.76 27.0241 12.76ZM47.0031 15V8.62C47.0031 7.90667 46.8331 7.35333 46.4931 6.96C46.1598 6.56 45.6965 6.36 45.1031 6.36C44.7231 6.36 44.3931 6.45 44.1131 6.63C43.8331 6.80333 43.6131 7.05 43.4531 7.37C43.2998 7.68333 43.2231 8.04667 43.2231 8.46L42.0831 7.7C42.0831 6.96 42.2565 6.30667 42.6031 5.74C42.9565 5.17333 43.4265 4.73333 44.0131 4.42C44.6065 4.1 45.2631 3.94 45.9831 3.94C47.2165 3.94 48.1465 4.30667 48.7731 5.04C49.4065 5.76667 49.7231 6.72 49.7231 7.9V15H47.0031ZM33.9831 15V4.2H36.3831V7.78H36.7231V15H33.9831ZM40.5031 15V8.62C40.5031 7.90667 40.3331 7.35333 39.9931 6.96C39.6598 6.56 39.1965 6.36 38.6031 6.36C38.0365 6.36 37.5798 6.55667 37.2331 6.95C36.8931 7.33667 36.7231 7.84 36.7231 8.46L35.5831 7.66C35.5831 6.95333 35.7598 6.32 36.1131 5.76C36.4665 5.2 36.9398 4.75667 37.5331 4.43C38.1331 4.10333 38.8031 3.94 39.5431 3.94C40.3898 3.94 41.0831 4.12 41.6231 4.48C42.1698 4.84 42.5731 5.32 42.8331 5.92C43.0931 6.52 43.2231 7.18 43.2231 7.9V15H40.5031ZM64.6234 15V8.62C64.6234 7.90667 64.4534 7.35333 64.1134 6.96C63.7801 6.56 63.3168 6.36 62.7234 6.36C62.3434 6.36 62.0134 6.45 61.7334 6.63C61.4534 6.80333 61.2334 7.05 61.0734 7.37C60.9201 7.68333 60.8434 8.04667 60.8434 8.46L59.7034 7.7C59.7034 6.96 59.8768 6.30667 60.2234 5.74C60.5768 5.17333 61.0468 4.73333 61.6334 4.42C62.2268 4.1 62.8834 3.94 63.6034 3.94C64.8368 3.94 65.7668 4.30667 66.3934 5.04C67.0268 5.76667 67.3434 6.72 67.3434 7.9V15H64.6234ZM51.6034 15V4.2H54.0034V7.78H54.3434V15H51.6034ZM58.1234 15V8.62C58.1234 7.90667 57.9534 7.35333 57.6134 6.96C57.2801 6.56 56.8168 6.36 56.2234 6.36C55.6568 6.36 55.2001 6.55667 54.8534 6.95C54.5134 7.33667 54.3434 7.84 54.3434 8.46L53.2034 7.66C53.2034 6.95333 53.3801 6.32 53.7334 5.76C54.0868 5.2 54.5601 4.75667 55.1534 4.43C55.7534 4.10333 56.4234 3.94 57.1634 3.94C58.0101 3.94 58.7034 4.12 59.2434 4.48C59.7901 4.84 60.1934 5.32 60.4534 5.92C60.7134 6.52 60.8434 7.18 60.8434 7.9V15H58.1234ZM74.0684 15.3C72.9618 15.3 71.9851 15.0633 71.1384 14.59C70.2984 14.11 69.6384 13.4533 69.1584 12.62C68.6851 11.78 68.4484 10.82 68.4484 9.74C68.4484 8.56 68.6818 7.53333 69.1484 6.66C69.6151 5.78667 70.2584 5.11 71.0784 4.63C71.8984 4.14333 72.8418 3.9 73.9084 3.9C75.0418 3.9 76.0051 4.16667 76.7984 4.7C77.5918 5.23333 78.1784 5.98333 78.5584 6.95C78.9384 7.91667 79.0718 9.05333 78.9584 10.36H76.2684V9.36C76.2684 8.26 76.0918 7.47 75.7384 6.99C75.3918 6.50333 74.8218 6.26 74.0284 6.26C73.1018 6.26 72.4184 6.54333 71.9784 7.11C71.5451 7.67 71.3284 8.5 71.3284 9.6C71.3284 10.6067 71.5451 11.3867 71.9784 11.94C72.4184 12.4867 73.0618 12.76 73.9084 12.76C74.4418 12.76 74.8984 12.6433 75.2784 12.41C75.6584 12.1767 75.9484 11.84 76.1484 11.4L78.8684 12.18C78.4618 13.1667 77.8184 13.9333 76.9384 14.48C76.0651 15.0267 75.1084 15.3 74.0684 15.3ZM70.4884 10.36V8.34H77.6484V10.36H70.4884ZM80.5164 15V4.2H82.9164V6.84L82.6564 6.5C82.7964 6.12667 82.9831 5.78667 83.2164 5.48C83.4497 5.17333 83.7364 4.92 84.0764 4.72C84.3364 4.56 84.6197 4.43667 84.9264 4.35C85.2331 4.25667 85.5497 4.2 85.8764 4.18C86.2031 4.15333 86.5297 4.16 86.8564 4.2V6.74C86.5564 6.64667 86.2064 6.61667 85.8064 6.65C85.4131 6.67667 85.0564 6.76667 84.7364 6.92C84.4164 7.06667 84.1464 7.26333 83.9264 7.51C83.7064 7.75 83.5397 8.03667 83.4264 8.37C83.3131 8.69667 83.2564 9.06667 83.2564 9.48V15H80.5164ZM92.6233 15.3C91.5033 15.3 90.5433 15.05 89.7433 14.55C88.9433 14.05 88.3299 13.37 87.9033 12.51C87.4766 11.65 87.2633 10.68 87.2633 9.6C87.2633 8.50667 87.4833 7.53 87.9233 6.67C88.3699 5.81 88.9966 5.13333 89.8033 4.64C90.6099 4.14667 91.5633 3.9 92.6633 3.9C93.9366 3.9 95.0033 4.22333 95.8633 4.87C96.7299 5.51 97.2833 6.38667 97.5233 7.5L94.8033 8.22C94.6433 7.66 94.3633 7.22333 93.9633 6.91C93.5699 6.59667 93.1233 6.44 92.6233 6.44C92.0499 6.44 91.5799 6.58 91.2133 6.86C90.8466 7.13333 90.5766 7.51 90.4033 7.99C90.2299 8.46333 90.1433 9 90.1433 9.6C90.1433 10.54 90.3499 11.3033 90.7633 11.89C91.1833 12.47 91.8033 12.76 92.6233 12.76C93.2366 12.76 93.7033 12.62 94.0233 12.34C94.3433 12.06 94.5833 11.66 94.7433 11.14L97.5233 11.72C97.2166 12.8667 96.6366 13.75 95.7833 14.37C94.9299 14.99 93.8766 15.3 92.6233 15.3ZM103.55 15.3C102.444 15.3 101.467 15.0633 100.62 14.59C99.7805 14.11 99.1205 13.4533 98.6405 12.62C98.1671 11.78 97.9305 10.82 97.9305 9.74C97.9305 8.56 98.1638 7.53333 98.6305 6.66C99.0971 5.78667 99.7405 5.11 100.56 4.63C101.38 4.14333 102.324 3.9 103.39 3.9C104.524 3.9 105.487 4.16667 106.28 4.7C107.074 5.23333 107.66 5.98333 108.04 6.95C108.42 7.91667 108.554 9.05333 108.44 10.36H105.75V9.36C105.75 8.26 105.574 7.47 105.22 6.99C104.874 6.50333 104.304 6.26 103.51 6.26C102.584 6.26 101.9 6.54333 101.46 7.11C101.027 7.67 100.81 8.5 100.81 9.6C100.81 10.6067 101.027 11.3867 101.46 11.94C101.9 12.4867 102.544 12.76 103.39 12.76C103.924 12.76 104.38 12.6433 104.76 12.41C105.14 12.1767 105.43 11.84 105.63 11.4L108.35 12.18C107.944 13.1667 107.3 13.9333 106.42 14.48C105.547 15.0267 104.59 15.3 103.55 15.3ZM99.9705 10.36V8.34H107.13V10.36H99.9705Z" fill="#0E1422"/>
</svg>
